<svg xmlns="http://www.w3.org/2000/svg" viewBox="0 0 205.88 117"><path d="M199.41,4a2.48,2.48,0,0,1,2.47,2.47V110.53a2.48,2.48,0,0,1-2.47,2.47H45.48a2.47,2.47,0,0,1-2-1L24,86.48,4.51,60.93a2.46,2.46,0,0,1,0-3L29.29,24.35,43.56,5a2.52,2.52,0,0,1,2-1H199.41m0-4H45.55a6.49,6.49,0,0,0-5.21,2.63l-39.08,53a6.48,6.48,0,0,0,.07,7.77l39,51.1A6.48,6.48,0,0,0,45.48,117H199.41a6.47,6.47,0,0,0,6.47-6.47V6.47A6.47,6.47,0,0,0,199.41,0Z" style="fill:#666"/><path d="M89.38,25.5l63.5,65.13" style="fill:none;stroke:#666;stroke-miterlimit:10;stroke-width:4px"/><path d="M150.3,25.5C129.13,48,110.55,67.53,89.38,90" style="fill:none;stroke:#666;stroke-miterlimit:10;stroke-width:4px"/></svg>