<?xml version="1.0" encoding="utf-8"?>
<!-- Generator: Adobe Illustrator 25.0.0, SVG Export Plug-In . SVG Version: 6.00 Build 0)  -->
<svg version="1.1" id="Layer_1" xmlns="http://www.w3.org/2000/svg" xmlns:xlink="http://www.w3.org/1999/xlink" x="0px" y="0px"
	 viewBox="0 0 1920 1080" style="enable-background:new 0 0 1920 1080;" xml:space="preserve">
<g>
	<path style="fill:#666666;" d="M867.5,548c1.4,0,2.5,1.1,2.5,2.5v104.1c0,1.4-1.1,2.5-2.5,2.5H713.6c-0.8,0-1.5-0.4-2-1l-19.5-25.5
		l-19.5-25.5c-0.7-0.9-0.7-2.1,0-3l24.8-33.6l14.3-19.3c0.5-0.6,1.2-1,2-1H867.5 M867.5,544H713.7c-2.1,0-4,1-5.2,2.6
		c-13,17.7-26.1,35.3-39.1,53c-1.7,2.3-1.7,5.5,0.1,7.8c13,17,26,34.1,39,51.1c1.2,1.6,3.1,2.5,5.1,2.5h153.9c3.6,0,6.5-2.9,6.5-6.5
		V550.5C874,546.9,871.1,544,867.5,544L867.5,544z"/>
</g>
<g>
	<path style="fill:none;stroke:#666666;stroke-width:4;stroke-miterlimit:10;" d="M757.5,569.5c21.2,21.7,42.3,43.4,63.5,65.1"/>
	<path style="fill:none;stroke:#666666;stroke-width:4;stroke-miterlimit:10;" d="M818.4,569.5c-21.2,22.5-39.8,42-60.9,64.5"/>
</g>
</svg>
